<?xml version="1.0" encoding="UTF-8" standalone="no"?>
<!DOCTYPE svg PUBLIC "-//W3C//DTD SVG 1.1//EN" "http://www.w3.org/Graphics/SVG/1.1/DTD/svg11.dtd">
<svg xmlns="http://www.w3.org/2000/svg" version="1.1" viewBox="0.00 0.00 256.00 256.00">
<path fill="#09367f" d="
  M 150.16 16.80
  C 111.17 8.99 72.53 25.84 51.52 59.50
  C 49.90 62.08 47.11 69.48 43.95 71.62
  C 37.75 75.82 30.30 68.81 33.57 62.08
  C 55.65 16.56 104.73 -7.68 154.25 2.75
  C 162.38 4.47 163.04 15.58 154.91 17.14
  Q 153.34 17.44 150.16 16.80
  Z"
/>
<path fill="#09367f" d="
  M 178.97 11.26
  C 215.14 29.74 238.40 65.43 239.22 106.20
  Q 239.31 110.77 237.78 112.98
  C 235.07 116.91 227.56 116.45 225.52 111.75
  Q 224.86 110.24 224.75 106.20
  C 223.75 71.61 204.90 42.13 174.51 25.63
  Q 170.37 23.39 169.06 21.61
  C 164.32 15.22 171.77 7.59 178.97 11.26
  Z"
/>
<path fill="#09367f" d="
  M 177.71 67.80
  C 162.85 51.29 141.93 43.82 120.03 47.58
  Q 115.51 48.35 113.90 48.05
  C 107.44 46.81 106.22 37.67 112.24 34.79
  Q 115.13 33.41 119.44 32.80
  C 144.88 29.19 169.12 37.88 186.67 55.87
  C 189.88 59.16 192.36 62.64 189.84 66.90
  C 187.08 71.57 181.31 71.79 177.71 67.80
  Z"
/>
<path fill="#09367f" d="
  M 90.39 62.14
  C 76.92 74.32 69.27 90.89 69.36 109.50
  Q 69.48 132.26 69.56 154.99
  Q 69.69 190.17 47.67 217.15
  C 45.79 219.46 43.36 221.72 40.34 221.93
  C 35.03 222.29 31.05 216.56 33.43 211.74
  C 34.71 209.14 37.68 206.54 39.11 204.67
  C 49.86 190.70 54.88 173.00 54.91 155.50
  Q 54.94 133.48 54.95 111.45
  Q 54.95 100.14 56.26 93.66
  Q 61.43 68.06 81.73 50.51
  C 89.48 43.81 98.59 54.73 90.39 62.14
  Z"
/>
<path fill="#09367f" d="
  M 86.58 110.00
  C 86.56 79.86 114.35 59.27 143.24 66.76
  C 147.00 67.73 151.22 69.02 152.96 72.55
  C 155.05 76.77 151.93 82.61 147.06 82.77
  C 143.67 82.89 140.15 80.60 136.56 80.08
  Q 118.42 77.45 107.32 91.32
  C 102.54 97.29 101.18 103.72 101.19 111.95
  Q 101.19 132.50 101.18 153.05
  Q 101.18 159.61 100.94 163.43
  Q 100.47 170.94 99.45 173.75
  C 97.46 179.21 91.30 181.03 87.22 176.98
  C 83.79 173.58 85.73 168.11 86.21 163.85
  Q 86.57 160.66 86.58 157.15
  Q 86.60 133.57 86.58 110.00
  Z"
/>
<path fill="#09367f" d="
  M 182.24 222.76
  Q 192.57 193.21 192.93 162.24
  Q 193.20 139.21 193.01 109.56
  C 192.97 102.25 192.08 97.44 190.50 90.51
  C 189.21 84.85 195.81 80.26 200.71 82.54
  C 207.01 85.47 207.48 103.49 207.53 109.64
  Q 207.79 141.95 207.44 163.00
  Q 206.84 198.82 194.98 230.44
  C 192.25 237.71 181.39 237.13 180.75 229.26
  C 180.56 226.95 181.47 224.97 182.24 222.76
  Z"
/>
<path fill="#09367f" d="
  M 159.17 98.56
  C 158.26 96.41 157.44 94.70 157.74 92.41
  C 158.71 85.02 168.55 83.94 171.71 90.78
  Q 175.65 99.32 175.72 108.75
  Q 175.80 121.38 175.86 134.01
  Q 175.88 138.63 175.00 140.39
  C 172.30 145.74 164.27 145.18 162.00 139.79
  Q 161.29 138.08 161.29 134.11
  Q 161.32 122.17 161.24 110.23
  C 161.22 105.89 160.70 102.20 159.17 98.56
  Z"
/>
<path fill="#09367f" d="
  M 20.27 168.15
  Q 23.38 159.10 23.32 149.50
  Q 23.12 115.97 23.25 103.00
  C 23.27 100.61 23.62 97.58 25.04 95.63
  C 27.91 91.73 34.94 92.17 37.07 96.56
  Q 37.91 98.32 37.86 102.56
  Q 37.58 125.40 37.74 148.25
  C 37.83 160.02 35.82 173.49 29.01 183.02
  C 23.42 190.85 12.23 183.51 16.52 175.73
  Q 19.57 170.21 20.27 168.15
  Z"
/>
<path fill="#09367f" d="
  M 123.68 158.25
  Q 123.95 135.33 123.96 112.40
  Q 123.96 107.55 125.37 105.39
  C 128.00 101.35 135.89 101.73 137.87 106.64
  Q 138.49 108.19 138.50 111.94
  Q 138.56 131.47 138.50 151.00
  C 138.38 187.37 130.28 223.21 108.09 252.83
  C 102.14 260.78 90.54 251.78 96.51 243.76
  Q 111.16 224.08 117.82 199.25
  Q 123.45 178.25 123.68 158.25
  Z"
/>
<path fill="#09367f" d="
  M 231.93 209.33
  C 228.59 213.43 220.70 211.25 219.64 205.88
  Q 219.25 203.91 220.35 199.91
  C 225.42 181.56 224.77 163.81 224.79 145.00
  Q 224.79 141.14 225.91 139.25
  C 228.06 135.62 232.96 134.67 236.35 137.18
  C 238.64 138.88 239.26 140.88 239.28 143.85
  Q 239.32 150.86 239.25 167.50
  Q 239.18 185.86 234.62 202.73
  Q 233.29 207.65 231.93 209.33
  Z"
/>
<path fill="#09367f" d="
  M 173.37 188.94
  C 169.99 207.89 163.46 224.42 153.99 241.01
  C 151.42 245.51 145.15 246.67 141.81 242.46
  C 139.04 238.96 140.25 235.76 142.37 231.91
  C 150.37 217.33 156.19 202.96 158.88 186.49
  Q 159.92 180.17 160.99 168.00
  C 161.79 158.88 175.41 159.14 175.47 169.00
  Q 175.52 176.88 173.37 188.94
  Z"
/>
<path fill="#09367f" d="
  M 93.51 202.66
  C 90.34 213.08 85.16 222.72 78.37 231.00
  Q 75.39 234.64 72.88 235.54
  C 66.67 237.75 60.88 229.56 65.76 223.74
  Q 74.91 212.84 80.27 196.31
  C 82.86 188.32 96.98 191.21 93.51 202.66
  Z"
/>
</svg>
